<?xml version="1.0" standalone="no"?><!DOCTYPE svg PUBLIC "-//W3C//DTD SVG 1.1//EN" "http://www.w3.org/Graphics/SVG/1.1/DTD/svg11.dtd"><svg t="1545190382242" class="icon" style="" viewBox="0 0 1181 1024" version="1.1" xmlns="http://www.w3.org/2000/svg" p-id="12456" xmlns:xlink="http://www.w3.org/1999/xlink" width="230.6640625" height="200"><defs><style type="text/css"></style></defs><path d="M588.846-0.001c-282.739 0-512 229.262-512 512.001s229.237 512.001 512 512.001S1100.847 794.739 1100.847 512 871.585-0.001 588.847-0.001z m0 972.804c-254.068 0-460.802-206.736-460.802-460.803S334.779 51.197 588.846 51.197 1049.65 257.933 1049.65 512 842.914 972.803 588.846 972.803z" p-id="12457"></path><path d="M669.2 188.994c-19.147-14.028-48.125-5.53-64.739 18.995-16.639 24.498-14.565 55.754 4.556 69.832 19.098 14.028 48.126 5.53 64.74-18.994 16.64-24.523 14.592-55.78-4.556-69.833z m-56.035 568.984s-65.482 60.77-49.202-15.998c0 0 5.17-33.637 23.064-103.982 14.31-56.24 37.656-135.725 66.123-241.55 0 0 14.9-53.296-47.691-43.212-27.084 4.377-60.285 22.527-87.65 43.212-35.813 27.056-63.512 58.595-72.29 70.37l21.528 19.224s121.363-134.317 90.748-22.398c-30.668 111.892-79.997 276.875-78.435 343.945 1.512 67.095 84.604 27.212 84.604 27.212s22.323-14.258 47.666-35.224c33.508-27.672 72.29-65.585 72.29-65.585l-19.966-20.812-50.788 44.798z" p-id="12458"></path></svg>