<?xml version="1.0" standalone="no"?><!DOCTYPE svg PUBLIC "-//W3C//DTD SVG 1.1//EN" "http://www.w3.org/Graphics/SVG/1.1/DTD/svg11.dtd"><svg t="1545191199703" class="icon" style="" viewBox="0 0 1228 1024" version="1.1" xmlns="http://www.w3.org/2000/svg" p-id="16737" xmlns:xlink="http://www.w3.org/1999/xlink" width="239.84375" height="200"><defs><style type="text/css"></style></defs><path d="M1024 0H204.8a204.8 204.8 0 0 0-204.8 204.8v614.4a204.8 204.8 0 0 0 204.8 204.8h819.2a204.8 204.8 0 0 0 204.8-204.8V204.8a204.8 204.8 0 0 0-204.8-204.8zM281.6 230.4a102.4 102.4 0 1 1 0 204.8 102.4 102.4 0 0 1 0-204.8z m768 665.6H204.8s-95.0272-249.7536 204.8-307.2c36.1984 6.9888 96.4352 19.2512 281.6 51.2 38.7328-41.2672 33.28-362.8544 358.4-307.2v563.2z" p-id="16738"></path></svg>