<?xml version="1.0" standalone="no"?><!DOCTYPE svg PUBLIC "-//W3C//DTD SVG 1.1//EN" "http://www.w3.org/Graphics/SVG/1.1/DTD/svg11.dtd"><svg t="1545126414624" class="icon" style="" viewBox="0 0 1024 1024" version="1.1" xmlns="http://www.w3.org/2000/svg" p-id="1180" xmlns:xlink="http://www.w3.org/1999/xlink" width="200" height="200"><defs><style type="text/css"></style></defs><path d="M1011.24 68.255l-441.9 443.735 152.975 0c25.5 0 42.5 17.075 42.5 42.65 0 25.6-17 42.675-42.5 42.675l-254.935 0c-8.5 0-25.5 0-34-8.525-8.485-8.55-8.485-25.6-8.485-34.15l0-255.985c0-25.585 16.985-42.66 42.485-42.66 25.49 0 42.485 17.075 42.485 42.66l0 162.135 441.9-443.725c16.975-17.075 42.475-17.075 59.475 0C1028.24 25.595 1028.24 51.195 1011.24 68.255zM382.405 85.33l-212.45 0c-50.985 0-84.975 34.125-84.975 85.325l0 682.66c0 51.2 33.985 85.35 84.975 85.35l679.835 0c50.975 0 84.975-34.15 84.975-85.35l0-213.35c0-25.575 17-42.65 42.475-42.65 25.5 0 42.5 17.075 42.5 42.65l0 213.35c0 93.875-76.475 170.675-169.95 170.675L169.955 1023.99c-93.475 0-169.96-76.8-169.96-170.675L-0.005 170.655c0-93.86 76.485-170.66 169.96-170.66l212.45 0c25.49 0 42.485 17.075 42.485 42.66C424.895 68.255 407.895 85.33 382.405 85.33z" p-id="1181"></path></svg>