<?xml version="1.0" standalone="no"?><!DOCTYPE svg PUBLIC "-//W3C//DTD SVG 1.1//EN" "http://www.w3.org/Graphics/SVG/1.1/DTD/svg11.dtd"><svg t="1545191184082" class="icon" style="" viewBox="0 0 1183 1024" version="1.1" xmlns="http://www.w3.org/2000/svg" p-id="16628" xmlns:xlink="http://www.w3.org/1999/xlink" width="231.0546875" height="200"><defs><style type="text/css"></style></defs><path d="M1080.888889 1024H102.4c-56.888889 0-102.4-45.511111-102.4-102.4V229.831111c0-56.888889 45.511111-102.4 102.4-102.4h218.453333l64.853334-102.4C385.706667 11.377778 423.253333 0 436.906667 0h308.337777C758.897778 0 796.444444 11.377778 796.444444 25.031111l64.853334 102.4H1080.888889c56.888889 0 102.4 45.511111 102.4 102.4V921.6c0 56.888889-45.511111 102.4-102.4 102.4zM597.333333 227.555556C411.875556 227.555556 261.688889 377.742222 261.688889 563.2S411.875556 898.844444 597.333333 898.844444 932.977778 748.657778 932.977778 563.2 782.791111 227.555556 597.333333 227.555556z m0 557.511111C468.764444 785.066667 364.088889 682.666667 364.088889 557.511111s104.675556-227.555556 233.244444-227.555555S830.577778 432.355556 830.577778 557.511111s-104.675556 227.555556-233.244445 227.555556z" p-id="16629"></path></svg>