<?xml version="1.0" standalone="no"?><!DOCTYPE svg PUBLIC "-//W3C//DTD SVG 1.1//EN" "http://www.w3.org/Graphics/SVG/1.1/DTD/svg11.dtd"><svg t="1545190404025" class="icon" style="" viewBox="0 0 1024 1024" version="1.1" xmlns="http://www.w3.org/2000/svg" p-id="12566" xmlns:xlink="http://www.w3.org/1999/xlink" width="200" height="200"><defs><style type="text/css"></style></defs><path d="M474.56 999.488c-52.544-13.248-240-139.648-346.88-409.088-49.344-124.352-61.952-263.488-63.872-358.272a67.648 67.648 0 0 1 38.592-62.016C214.656 118.08 420.672 29.952 480.64 29.696c60.032 0.192 265.152 88.064 376.896 140.032 20.8 9.6 38.72 38.4 38.272 61.632-1.92 95.424-14.72 235.2-64 359.104-100.544 252.8-285.44 393.088-345.664 408.96a23.04 23.04 0 0 1-11.52 0.064zM121.856 212.096a21.312 21.312 0 0 0-11.84 19.072c1.856 91.008 13.824 224.256 60.608 342.144 96.832 244.224 260.352 361.024 309.376 379.52 46.912-19.072 215.168-143.936 308.928-379.52 46.72-117.376 58.752-251.264 60.672-342.912 0.064-5.12-7.424-16.64-11.648-18.816C671.744 134.4 518.08 76.032 480.64 75.904c-37.312 0.128-191.616 58.688-358.72 136.192z" fill="" p-id="12567"></path><path d="M638.4 615.296c0 81.856-69.376 148.096-155.84 148.096-86.528 0-155.84-66.24-155.84-148.096 0-73.984 56.832-134.784 130.88-145.664V202.24c0.768-9.344 8.576-16.32 17.152-15.552 8.576 0.768 14.784 7.04 15.616 15.552v31.168H572.16a15.616 15.616 0 0 1 0 31.168H491.136v46.72h81.792a15.616 15.616 0 0 1 0 31.168H491.136v125.504c81.792 3.904 147.2 68.608 147.2 147.264z m-278.976 0c0 64.64 55.296 116.928 123.136 116.928 67.776 0 123.072-52.224 123.072-116.928 0-64.64-55.296-116.864-123.072-116.864-67.84 0-123.136 52.224-123.136 116.864z" fill="" p-id="12568"></path></svg>
