<?xml version="1.0" standalone="no"?><!DOCTYPE svg PUBLIC "-//W3C//DTD SVG 1.1//EN" "http://www.w3.org/Graphics/SVG/1.1/DTD/svg11.dtd"><svg t="1545126240732" class="icon" style="" viewBox="0 0 1024 1024" version="1.1" xmlns="http://www.w3.org/2000/svg" p-id="6808" xmlns:xlink="http://www.w3.org/1999/xlink" width="200" height="200"><defs><style type="text/css"></style></defs><path d="M510.492434 301.091661c-116.517389 0-211.31265 94.933854-211.31265 211.628721 0 116.696861 94.795261 211.633706 211.31265 211.633706 116.521377 0 211.325612-94.936845 211.325612-211.633706 0-116.695864-94.804235-211.628721-211.325612-211.628721z m0 353.491583c-78.099354 0-141.645501-63.638874-141.645501-141.862862 0-78.220997 63.546147-141.85688 141.645501-141.85688 78.116304 0 141.660457 63.635883 141.660458 141.85688 0 78.223988-63.544153 141.862862-141.660458 141.862862z m437.93628-291.546727h-42.169005a14.468457 14.468457 0 0 1-13.366697-8.945696 14.509336 14.509336 0 0 1 3.13578-15.794557l29.817324-29.860199c27.094331-27.133217 27.094331-71.539643 0-98.673856L813.002924 96.751509c-13.546168-13.568104-31.404657-20.352156-49.263146-20.352156-17.855497 0-35.711991 6.784052-49.261151 20.352156l-29.814333 29.860198a14.44353 14.44353 0 0 1-10.236899 4.244519 14.483413 14.483413 0 0 1-14.468456-14.490392V74.13202c0-38.376158-31.349818-74.13202-69.667149-74.13202H430.709032c-38.317331 0-69.667149 35.755862-69.667149 74.13202v42.233814c0 5.862761-3.52663 11.146225-8.932734 13.387635a14.380715 14.380715 0 0 1-5.532731 1.102757c-3.768918 0-7.469038-1.469679-10.238893-4.244519L306.519203 96.751509c-13.543177-13.568104-31.402663-20.352156-49.260154-20.352156-17.856494 0-35.712988 6.784052-49.262148 20.352156L95.155703 209.762209c-27.096325 27.134214-27.096325 71.54064 0 98.673856l29.81533 29.860199a14.504351 14.504351 0 0 1 3.136776 15.794557 14.472445 14.472445 0 0 1-13.367693 8.945696H72.572108C34.254778 363.036517 0.0005 394.433197 0.0005 432.808357v159.825046c0 38.375161 34.254278 69.772838 72.571608 69.772838h42.168008a14.464468 14.464468 0 0 1 13.367693 8.945696 14.495377 14.495377 0 0 1-3.136776 15.792563l-29.81533 29.862192c-27.096325 27.135211-27.096325 71.54064 0 98.67286l112.841198 113.013691c13.54916 13.565113 31.405654 20.349165 49.262148 20.349165 17.858488 0 35.716977-6.784052 49.260154-20.349165l29.817325-29.86319a14.466462 14.466462 0 0 1 15.771624-3.139767 14.490392 14.490392 0 0 1 8.932734 13.387634v42.232818c0 38.372169 31.349818 72.679292 69.667149 72.679291h159.582758c38.317331 0 69.667149-34.306125 69.667149-72.679291V909.076923a14.485407 14.485407 0 0 1 14.468456-14.491389 14.467459 14.467459 0 0 1 10.236899 4.243522l29.814333 29.86319c13.54916 13.565113 31.405654 20.349165 49.261151 20.349164 17.858488 0 35.716977-6.784052 49.263145-20.349164l112.843193-113.013691c27.094331-27.13222 27.094331-71.537649 0-98.67286l-29.817324-29.862192a14.505348 14.505348 0 0 1-3.13578-15.792563 14.461477 14.461477 0 0 1 13.366696-8.945696h42.169005c38.317331 0 72.569614-31.39668 72.569615-69.772838V432.808357c0.000997-38.375161-34.252284-69.771841-72.568617-69.77184z m2.903462 229.596886h-45.072467c-34.150583 0-64.66386 20.418959-77.73044 52.015054-13.071564 31.599085-5.911617 67.648086 18.236378 91.833968l29.818321 29.860198-112.841198 113.012695-29.819319-29.864187c-15.891273-15.914205-37.021142-24.678435-59.497053-24.678435a83.65103 83.65103 0 0 0-32.196329 6.413143c-31.549232 13.090508-51.939276 43.648654-51.939276 77.851084v45.140268H430.709032V909.076923c0-34.20243-20.389047-64.760576-51.934291-77.84909a83.616133 83.616133 0 0 0-32.19932-6.415137c-22.476908 0-43.607774 8.764229-59.49805 24.678435l-29.818322 29.864187-112.842195-113.012695 29.817324-29.860198c24.148992-24.185883 31.308938-60.233886 18.238371-91.827986-13.068573-31.601079-43.579856-52.021036-77.732433-52.021036H69.667649V432.808357h45.07147c34.153574 0 64.66386-20.418959 77.730439-52.01605 13.073558-31.598088 5.912614-67.646091-18.236377-91.832972l-29.817324-29.860198 112.842195-113.013691 29.818322 29.864186c15.890276 15.914205 37.021142 24.678435 59.49805 24.678435a83.654021 83.654021 0 0 0 32.19234-6.413142c31.552223-13.091505 51.94127-43.648654 51.941271-77.850088v-46.592996h159.582758v46.593993c0 34.200436 20.390045 64.757585 51.937282 77.848094a83.652027 83.652027 0 0 0 32.198323 6.415136c22.475911 0 43.60578-8.765226 59.497053-24.678434l29.81533-29.864187 112.845187 113.013691-29.818321 29.860198c-24.147995 24.18688-31.307941 60.233886-18.239369 91.824996 13.068573 31.60407 43.582848 52.024027 77.733431 52.024027h45.072467v159.824048z" fill="" p-id="6809"></path></svg>
