<?xml version="1.0" standalone="no"?><!DOCTYPE svg PUBLIC "-//W3C//DTD SVG 1.1//EN" "http://www.w3.org/Graphics/SVG/1.1/DTD/svg11.dtd"><svg t="1545190423847" class="icon" style="" viewBox="0 0 1025 1024" version="1.1" xmlns="http://www.w3.org/2000/svg" p-id="12676" xmlns:xlink="http://www.w3.org/1999/xlink" width="200.1953125" height="200"><defs><style type="text/css"></style></defs><path d="M886.254472 867.566626c-190.605793 201.040267-507.12159 209.385798-708.172097 18.780006C16.004988 731.908222-20.172634 495.386646 72.345005 304.08454c6.256589-13.219731 13.905806-27.125537 21.565263-39.659194L0 175.389278 411.818694 34.170599 272.688958 434.16219l-98.774228-94.606582c-6.963143 13.916046-13.916046 27.832091-18.780006 42.434211-54.957628 144.003936-21.565263 313.74078 97.391839 426.431053 157.919981 149.56421 407.661288 143.307622 557.215258-14.60212 149.55397-157.919981 143.297382-407.651048-14.61236-557.215258-91.125011-86.261051-212.86737-121.046045-327.646586-104.344742l36.873937-105.041056c131.470279-10.434474 258.772912 31.303423 364.520523 132.176833C1068.514734 349.304008 1076.860265 666.526359 886.254472 867.566626z" p-id="12677"></path></svg>