<?xml version="1.0" standalone="no"?><!DOCTYPE svg PUBLIC "-//W3C//DTD SVG 1.1//EN" "http://www.w3.org/Graphics/SVG/1.1/DTD/svg11.dtd"><svg t="1545126298726" class="icon" style="" viewBox="0 0 1040 1024" version="1.1" xmlns="http://www.w3.org/2000/svg" p-id="7256" xmlns:xlink="http://www.w3.org/1999/xlink" width="203.125" height="200"><defs><style type="text/css"></style></defs><path d="M355.484374 816.953697c0 54.299585-44.004765 98.30435-98.30435 98.30435s-98.305549-44.004765-98.305549-98.30435 44.004765-98.30435 98.305549-98.30435C311.479609 718.647949 355.484374 762.652913 355.484374 816.953697zM905.992329 816.953697c0 54.299585-44.004765 98.30435-98.30435 98.30435s-98.30435-44.004765-98.30435-98.30435 44.004765-98.30435 98.30435-98.30435C861.987564 718.647949 905.992329 762.652913 905.992329 816.953697zM993.853559 481.94943l-87.86123-186.215146c-17.969816-21.658116-30.104789-39.32194-58.98241-39.32194l-137.627688 0 0-88.272151c0-21.658116-17.663824-39.32194-39.32194-39.32194L40.908456 128.818253c-21.658116 0-39.32194 17.663824-39.32194 39.32194l0 589.829895c0 21.658116 17.663824 39.32194 39.32194 39.32194l78.412436 0c9.642063-67.740072 67.472654-120.19151 137.859331-120.19151s128.217269 52.451438 137.859331 120.19151l274.789493-0.039573c9.676639-67.736275 67.508429-120.151937 137.859331-120.151937 70.386678 0 128.217269 52.451438 137.859331 120.19151l39.090297 0c21.658116 0 39.32214-17.663824 39.32214-39.32194 0 0 0-159.359954 0-196.610098C1023.959547 530.591251 993.853559 481.94943 993.853559 481.94943zM725.154137 561.35999 725.154137 335.056224l119.742814 0c9.72021 0 15.131141 9.2913 15.131141 9.2913l82.78807 183.604316c7.333228 10.790084 11.573753 23.105335 15.284837 33.408149L725.154137 561.35999z" p-id="7257"></path></svg>