<?xml version="1.0" standalone="no"?><!DOCTYPE svg PUBLIC "-//W3C//DTD SVG 1.1//EN" "http://www.w3.org/Graphics/SVG/1.1/DTD/svg11.dtd"><svg t="1545126273807" class="icon" style="" viewBox="0 0 1024 1024" version="1.1" xmlns="http://www.w3.org/2000/svg" p-id="7032" xmlns:xlink="http://www.w3.org/1999/xlink" width="200" height="200"><defs><style type="text/css"></style></defs><path d="M1014.143515 528.027022L586.492598 62.647829l-0.11768-0.122797c-19.029402-19.033495-44.24469-29.518291-70.992891-29.518291-29.734208 0-57.08616 12.799514-77.033467 36.038798L10.892071 527.933901c-12.290931 12.358469-12.275581 34.802644 0.050142 47.13246 6.170536 6.16849 14.535041 9.56689 23.556509 9.56689 8.944719 0 17.58654-3.51915 23.714098-9.650801l0.059351-0.061398 421.2573-458.979436c7.853875-7.824199 18.433838-12.132318 29.798677-12.132319 11.363815 0 21.917172 4.282536 29.724998 12.052501l422.320515 459.586256 0.12075 0.122797c5.65479 5.659907 14.554484 8.905834 24.414039 8.905834 10.075473 0 19.612687-3.517103 25.50386-9.410324 6.081509-6.081509 10.080589-14.320147 10.974959-22.607904 1.010003-9.400091-1.918699-18.073634-8.243754-24.431435z m-130.647549 35.624358c-16.361643 0-31.836079 15.474436-31.836079 31.843243v308.140009c0 15.267728-9.485025 24.752754-24.758894 24.752753H694.841282c-15.269775 0-24.758893-9.480932-24.758894-24.752753V652.093688c0-22.744004-9.594519-45.38363-26.328645-62.115709-16.730033-16.73208-39.367613-26.326599-62.1065-26.326599H437.007005c-22.741957 0-45.381583 9.594519-62.109569 26.326599-16.730033 16.734126-26.326599 39.371706-26.326599 62.115709v251.541967c0 15.267728-9.485025 24.752754-24.756847 24.752754H198.043518c-15.273868 0-24.7548-9.480932-24.7548-24.752754V595.495646c0-16.368806-15.47853-31.843242-31.845289-31.843242-16.362666 0-31.836079 15.474436-31.836079 31.843242v308.140009c0 22.744004 9.593496 45.381583 26.326599 62.10957 16.730033 16.73208 39.367613 26.326599 62.109569 26.326598h132.056642c22.741957 0 45.381583-9.594519 62.111616-26.326598 16.730033-16.727986 26.326599-39.365566 26.326599-62.10957V652.093688c0-15.273868 9.485025-24.76094 24.758893-24.76094h138.349975c15.266705 0 24.75173 9.487072 24.75173 24.76094v251.541967c0 22.744004 9.596566 45.381583 26.330692 62.113663 16.733103 16.727986 39.369659 26.322505 62.111617 26.322505h132.060734c22.741957 0 45.38056-9.594519 62.110593-26.322505 16.72594-16.73208 26.326599-39.369659 26.326599-62.10957V595.495646c0.001023-16.368806-15.474436-31.844266-31.843242-31.844266z" fill="" p-id="7033"></path></svg>
