<?xml version="1.0" standalone="no"?>
<!DOCTYPE svg PUBLIC "-//W3C//DTD SVG 20010904//EN"
 "http://www.w3.org/TR/2001/REC-SVG-20010904/DTD/svg10.dtd">
<svg version="1.0" xmlns="http://www.w3.org/2000/svg"
 width="310.000000pt" height="369.000000pt" viewBox="0 0 310.000000 369.000000"
 preserveAspectRatio="xMidYMid meet">
<metadata>
Created by potrace 1.15, written by Peter Selinger 2001-2017
</metadata>
<g transform="translate(0.000000,369.000000) scale(0.100000,-0.100000)"
fill="#000000" stroke="none">
<path d="M0 1845 l0 -1845 1550 0 1550 0 0 1845 0 1845 -1550 0 -1550 0 0
-1845z m2912 893 c2 -442 2 -1196 0 -1676 l-2 -872 -1370 0 -1370 0 -2 873
c-2 479 -2 1233 0 1675 l2 802 1370 0 1370 0 2 -802z"/>
<path d="M200 2730 l0 -770 325 0 c318 0 325 0 325 -20 0 -20 -7 -20 -325 -20
l-325 0 0 -845 0 -845 670 0 670 0 0 425 c0 370 2 425 15 425 13 0 15 -56 17
-422 l3 -423 653 -3 652 -2 0 835 0 835 -325 0 c-318 0 -325 0 -325 20 0 20 7
20 325 20 l325 0 0 780 0 780 -650 0 -650 0 0 -410 c0 -358 -2 -410 -15 -410
-13 0 -15 52 -15 410 l0 410 -675 0 -675 0 0 -770z"/>
</g>
</svg>
