<?xml version="1.0" standalone="no"?><!DOCTYPE svg PUBLIC "-//W3C//DTD SVG 1.1//EN" "http://www.w3.org/Graphics/SVG/1.1/DTD/svg11.dtd"><svg t="1545126285649" class="icon" style="" viewBox="0 0 1024 1024" version="1.1" xmlns="http://www.w3.org/2000/svg" p-id="7147" xmlns:xlink="http://www.w3.org/1999/xlink" width="200" height="200"><defs><style type="text/css"></style></defs><path d="M512.128011 4.693724c140.04367 0 266.774231 56.751396 358.60055 148.577715 91.570298 92.167681 148.321693 218.898242 148.321693 358.68589 0 140.04367-56.751396 266.774231-148.321693 358.68589-91.911659 92.167681-218.64222 148.577715-358.60055 148.577715-140.04367 0-266.774231-56.495375-358.60055-148.577715C61.615801 778.731561 4.864405 652.086341 4.864405 512.04267c0-139.702309 56.751396-266.51821 148.663055-358.68589C245.353779 61.44512 372.08434 4.693724 512.128011 4.693724L512.128011 4.693724zM488.91541 940.110343 488.91541 940.110343l0-163.853654C442.746229 778.731561 398.113176 787.948329 356.893741 803.992333 351.090591 805.613801 344.946079 807.832653 339.48429 810.563547c3.584299 7.168597 7.168597 14.081173 11.094258 21.335111 25.687474 46.510543 57.007417 82.182849 90.716893 103.773981C456.827402 938.147512 472.871406 939.854321 488.91541 940.110343L488.91541 940.110343zM815.427952 208.657388 815.427952 208.657388c-3.328277-3.584299-6.912576-6.912576-10.496875-10.240853C786.15618 212.83907 766.186516 225.042754 745.704809 236.051671 772.84307 308.847071 790.252521 395.211601 792.727394 488.488707l148.065672 0C934.733894 379.423619 887.967331 281.196766 815.427952 208.657388L815.427952 208.657388zM767.893324 167.437953 767.893324 167.437953c-26.540878-19.884324-55.897991-37.123094-86.876573-50.350863C692.623052 133.131094 703.887991 150.284524 714.726227 169.656805 719.16393 177.422785 723.00425 185.188766 726.929911 193.210768 741.267106 185.700808 754.836236 176.825402 767.893324 167.437953L767.893324 167.437953zM583.04592 88.583382 583.04592 88.583382C567.513959 86.108509 551.469956 83.889657 535.425952 83.292274l0 164.365697c46.510543-2.218852 90.716893-11.862322 131.765647-26.88224C673.16543 218.386199 679.309942 216.167347 684.857071 213.692474 681.528794 206.523877 677.603134 199.52596 673.762814 192.357363 648.331361 145.846821 617.011418 109.577131 583.04592 88.583382L583.04592 88.583382zM488.91541 83.292274 488.91541 83.292274C472.871406 83.889657 456.827402 86.620552 441.295441 88.583382 407.500625 109.577131 376.266022 145.846821 350.578548 192.357363 346.652888 199.52596 343.068589 206.523877 339.48429 213.692474c5.547129 2.474873 11.606301 4.693724 17.409451 7.168597 41.219435 14.934578 85.511126 24.663389 132.021668 26.88224L488.91541 83.292274 488.91541 83.292274zM343.665972 117.087091 343.665972 117.087091C312.346029 130.4002 283.330278 147.553629 256.448037 167.437953 269.675806 176.825402 283.330278 185.700808 297.070089 193.210768 301.251771 185.188766 305.092091 177.422785 309.529794 169.656805 320.112009 150.284524 331.462289 133.131094 343.665972 117.087091L343.665972 117.087091zM219.324944 198.501875 219.324944 198.501875c-3.328277 3.328277-7.509959 6.656555-10.496875 10.240853-72.539378 72.539378-119.561963 170.766231-125.109092 279.831319l147.72431 0c2.816235-93.277106 19.628302-179.641637 47.363947-252.351696C258.069506 225.042754 238.185182 212.83907 219.324944 198.501875L219.324944 198.501875zM83.718977 534.99925 83.718977 534.99925c5.547129 109.918493 52.569714 208.145345 125.109092 280.599383l10.496875 10.240853c18.860238-13.825152 38.744562-26.540878 59.48229-38.488541C251.15693 715.408951 234.344862 628.532378 231.528627 534.99925L83.718977 534.99925 83.718977 534.99925zM256.448037 857.07409 256.448037 857.07409c26.88224 19.884324 55.897991 36.269689 87.217935 49.83882-12.203684-15.787982-23.553963-33.453454-34.050838-52.569714C305.092091 846.833236 301.251771 838.811234 297.070089 830.789232 283.330278 838.555213 269.675806 847.089257 256.448037 857.07409L256.448037 857.07409zM535.425952 940.110343 535.425952 940.110343c16.044004-0.256021 32.088007-1.96283 47.619968-4.437703 34.050838-21.591133 65.28544-57.263439 90.716893-103.773981 3.84032-7.168597 7.76598-14.081173 11.094258-21.335111C679.309942 807.832653 673.16543 805.613801 667.106259 803.992333c-40.963414-16.044004-85.255105-25.175431-131.765647-27.650304L535.340612 940.110343 535.425952 940.110343zM680.931411 906.912909 680.931411 906.912909c30.978582-13.569131 60.335695-29.869156 86.876573-49.83882-13.057088-9.984832-26.540878-18.518877-40.963414-26.284857-3.84032 8.022002-7.76598 16.044004-12.203684 23.553963C703.887991 873.459455 693.135095 891.124927 680.931411 906.912909L680.931411 906.912909zM804.931078 825.839487 804.931078 825.839487l10.496875-10.240853c72.539378-72.454038 119.305942-170.766231 125.365114-280.599383L792.727394 534.99925C790.252521 628.532378 772.84307 715.408951 745.192766 787.350946 766.186516 799.213268 786.15618 811.928994 804.931078 825.839487L804.931078 825.839487zM703.119927 256.618718 703.119927 256.618718C696.463372 259.349612 690.062839 261.824485 683.747646 264.299358 636.981082 281.708809 587.398283 292.547046 535.425952 294.424535l0 193.978832 210.87624 0C743.485957 402.124177 728.039337 323.013584 703.119927 256.618718L703.119927 256.618718zM488.91541 294.424535 488.91541 294.424535C437.113759 292.547046 387.616301 281.708809 340.593716 264.299358 334.449204 261.824485 327.87799 259.349612 321.221435 256.618718 296.302025 323.013584 280.770064 402.124177 278.295191 488.488707l210.620218 0L488.91541 294.424535 488.91541 294.424535zM488.91541 729.831486 488.91541 729.831486 488.91541 534.99925 278.295191 534.99925C280.770064 621.36378 296.302025 700.986416 321.221435 767.466622c6.656555-2.474873 13.313109-4.949746 19.884324-7.509959C387.616301 742.547212 437.113759 731.964997 488.91541 729.831486L488.91541 729.831486zM535.425952 729.831486 535.425952 729.831486c52.057671 2.218852 101.55513 12.715726 148.321693 30.125177 6.315193 2.474873 12.715726 5.035086 19.372281 7.509959 24.91941-66.394866 40.451371-146.102842 43.182265-232.467372L535.425952 534.99925 535.425952 729.831486 535.425952 729.831486z" p-id="7148"></path></svg>