<?xml version="1.0" standalone="no"?><!DOCTYPE svg PUBLIC "-//W3C//DTD SVG 1.1//EN" "http://www.w3.org/Graphics/SVG/1.1/DTD/svg11.dtd"><svg t="1545126181913" class="icon" style="" viewBox="0 0 1160 1024" version="1.1" xmlns="http://www.w3.org/2000/svg" p-id="6698" xmlns:xlink="http://www.w3.org/1999/xlink" width="226.5625" height="200"><defs><style type="text/css"></style></defs><path d="M1092.266667 989.866667H341.333333a68.266667 68.266667 0 0 1-68.266666-68.266667V443.733333a68.266667 68.266667 0 0 1 68.266666-68.266666h750.933334a68.266667 68.266667 0 0 1 68.266666 68.266666v477.866667a68.266667 68.266667 0 0 1-68.266666 68.266667z m0-512a34.133333 34.133333 0 0 0-34.133334-34.133334H375.466667a34.133333 34.133333 0 0 0-34.133334 34.133334v409.6a34.133333 34.133333 0 0 0 34.133334 34.133333h682.666666a34.133333 34.133333 0 0 0 34.133334-34.133333V477.866667zM477.866667 375.466667V307.2a204.8 204.8 0 0 0-204.8-204.8C184.0128 102.4 109.021867 159.573333 80.7936 238.933333H68.266667a34.133333 34.133333 0 0 1-68.266667 0c0-13.6192 8.0896-25.156267 19.626667-30.6176C59.323733 106.5984 157.320533 34.133333 273.066667 34.133333a273.066667 273.066667 0 0 1 273.066666 273.066667v68.266667h-68.266666z" fill="" p-id="6699"></path><path d="M716.8 546.133333a34.133333 34.133333 0 0 1 34.133333 34.133334v136.533333a34.133333 34.133333 0 0 1-68.266666 0v-136.533333a34.133333 34.133333 0 0 1 34.133333-34.133334z" fill="" p-id="6700"></path></svg>