<?xml version="1.0" standalone="no"?><!DOCTYPE svg PUBLIC "-//W3C//DTD SVG 1.1//EN" "http://www.w3.org/Graphics/SVG/1.1/DTD/svg11.dtd"><svg t="1545126930349" class="icon" style="" viewBox="0 0 1024 1024" version="1.1" xmlns="http://www.w3.org/2000/svg" p-id="1289" xmlns:xlink="http://www.w3.org/1999/xlink" width="200" height="200"><defs><style type="text/css"></style></defs><path d="M981.315 341.33c-25.6 0-42.65-17.075-42.65-42.675l0-162.135-443.75 452.275c-19.725 19.725-42.66 13.525-59.725 0-17.065-17.075-17.065-42.65 0-59.75l443.75-443.71-153.625 0c-25.6 0-42.65-17.075-42.65-42.675 0-25.585 17.05-42.66 42.65-42.66l256 0c8.525 0 25.625 0 34.15 8.525 8.525 8.55 8.525 25.61 8.525 34.135l0 256C1023.99 324.255 1006.94 341.33 981.315 341.33zM383.995 85.33l-213.335 0c-51.185 0-85.325 34.135-85.325 85.325l0 682.66c0 51.2 34.135 85.35 85.325 85.35l682.66 0c51.2 0 85.35-34.15 85.35-85.35l0-213.325c0-25.6 17.05-42.675 42.65-42.675 25.625 0 42.675 17.075 42.675 42.675l0 213.325c0 93.875-76.8 170.675-170.675 170.675L170.655 1023.99c-93.86 0-170.66-76.8-170.66-170.675L-0.005 170.655c0-93.86 76.8-170.66 170.66-170.66l213.335 0c25.6 0 42.66 17.075 42.66 42.66C426.655 68.255 409.595 85.33 383.995 85.33z" p-id="1290"></path></svg>