<?xml version="1.0" standalone="no"?><!DOCTYPE svg PUBLIC "-//W3C//DTD SVG 1.1//EN" "http://www.w3.org/Graphics/SVG/1.1/DTD/svg11.dtd"><svg t="1545275571550" class="icon" style="" viewBox="0 0 1024 1024" version="1.1" xmlns="http://www.w3.org/2000/svg" p-id="4138" xmlns:xlink="http://www.w3.org/1999/xlink" width="200" height="200"><defs><style type="text/css"></style></defs><path d="M946 1008 78 1008C43.76 1008 16 980.24 16 946L16 78C16 43.76 43.76 16 78 16l868 0C980.24 16 1008 43.76 1008 78l0 868C1008 980.24 980.24 1008 946 1008zM946 108.992c0-17.12-13.872-30.992-30.992-30.992L109.008 78c-17.12 0-31.008 13.872-31.008 30.992l0 806c0 17.12 13.888 31.008 31.008 31.008l806 0c17.12 0 30.992-13.888 30.992-31.008L946 108.992z" p-id="4139"></path></svg>