<?xml version="1.0" standalone="no"?><!DOCTYPE svg PUBLIC "-//W3C//DTD SVG 1.1//EN" "http://www.w3.org/Graphics/SVG/1.1/DTD/svg11.dtd"><svg t="1545126314659" class="icon" style="" viewBox="0 0 1024 1024" version="1.1" xmlns="http://www.w3.org/2000/svg" p-id="7365" xmlns:xlink="http://www.w3.org/1999/xlink" width="200" height="200"><defs><style type="text/css"></style></defs><path d="M685.009356 367.735315 110.973464 367.735315l0-34.769898 594.611509 0L685.009356 367.735315 685.009356 367.735315zM307.639612 477.012138c0-11.867282 9.601682-21.539572 21.388123-21.539572 11.786441 0 21.388123 9.67229 21.388123 21.539572 0 11.888771-9.601682 21.560038-21.388123 21.560038C317.241294 498.572176 307.639612 488.900909 307.639612 477.012138L307.639612 477.012138 307.639612 477.012138zM192.886055 477.012138c0-11.867282 9.591449-21.539572 21.392216-21.539572 11.786441 0 21.388123 9.67229 21.388123 21.539572 0 11.888771-9.601682 21.560038-21.388123 21.560038C202.477504 498.572176 192.886055 488.900909 192.886055 477.012138L192.886055 477.012138 192.886055 477.012138zM519.410783 619.606787 110.973464 619.606787l0-34.769898 432.349939 0L519.410783 619.606787 519.410783 619.606787zM329.028759 747.890498c-11.786441 0-21.388123-9.67229-21.388123-21.544689 0-11.873422 9.601682-21.544689 21.388123-21.544689 11.786441 0 21.388123 9.671267 21.388123 21.544689C350.416881 738.217185 340.815199 747.890498 329.028759 747.890498L329.028759 747.890498 329.028759 747.890498zM214.278271 747.890498c-11.800767 0-21.392216-9.67229-21.392216-21.544689 0-11.873422 9.591449-21.544689 21.392216-21.544689 11.786441 0 21.388123 9.671267 21.388123 21.544689C235.667417 738.217185 226.065735 747.890498 214.278271 747.890498L214.278271 747.890498 214.278271 747.890498zM214.278271 206.599382c11.786441 0 21.388123 9.67229 21.388123 21.544689 0 11.873422-9.601682 21.544689-21.388123 21.544689-11.800767 0-21.392216-9.671267-21.392216-21.544689C192.886055 216.271672 202.477504 206.599382 214.278271 206.599382L214.278271 206.599382 214.278271 206.599382zM329.028759 206.599382c11.786441 0 21.388123 9.67229 21.388123 21.544689 0 11.873422-9.601682 21.544689-21.388123 21.544689-11.786441 0-21.388123-9.671267-21.388123-21.544689C307.639612 216.271672 317.241294 206.599382 329.028759 206.599382L329.028759 206.599382 329.028759 206.599382zM668.603711 90.648556 161.452135 90.648556c-50.433646 0-91.457991 41.332361-91.457991 92.119047l0 590.467119c0 50.78771 41.024345 92.119047 91.457991 92.119047l296.178583-1.842974 32.968879-158.711721 269.463128-399.674749L760.062725 182.768627C760.061702 131.980917 719.027124 90.648556 668.603711 90.648556L668.603711 90.648556 668.603711 90.648556zM668.603711 90.648556" p-id="7366"></path><path d="M508.74998 581.838601 491.859287 619.606787 508.74998 581.838601Z" p-id="7367"></path><path d="M661.334143 332.970534 640.753409 367.735315 661.334143 332.970534Z" p-id="7368"></path><path d="M766.174933 402.984121l10.07445-14.886035 4.705162-6.749728 21.449521-31.736818c4.628414-6.834662 11.649318-11.453866 19.797905-13.013385 8.142447-1.559519 16.35448 0.146333 23.144116 4.811586l101.135398 69.388347c6.78452 4.66423 11.373025 11.736299 12.917194 19.955494 1.534959 8.201799-0.161682 16.476253-4.790096 23.295566l-36.158525 53.472865L766.174933 402.984121 766.174933 402.984121zM766.174933 402.984121" p-id="7369"></path><path d="M575.998593 882.4481l-31.907711-24.846898 20.550035-111.493304 113.997334 78.868255L575.998593 882.4481 575.998593 882.4481zM822.777069 511.206938 648.592958 769.287831l-19.559475-14.603603 173.930331-257.131265-67.38369-48.839335L546.068933 728.85905c-0.721431 1.070378-1.225921 2.316765-1.459235 3.609201l-33.118282 192.649672c-0.605797 3.492544 0.858554 7.072069 3.745301 9.138124 2.009773 1.443885 4.557806 1.992377 6.996344 1.528819 0.974188-0.191358 1.90335-0.530073 2.756787-1.00898l165.818583-93.199659c1.225921-0.686638 2.302439-1.696642 3.113921-2.882654l192.09504-283.951097L822.777069 511.206938 822.777069 511.206938zM822.777069 511.206938" p-id="7370"></path></svg>