<?xml version="1.0" standalone="no"?><!DOCTYPE svg PUBLIC "-//W3C//DTD SVG 1.1//EN" "http://www.w3.org/Graphics/SVG/1.1/DTD/svg11.dtd"><svg t="1545113009607" class="icon" style="" viewBox="0 0 1024 1024" version="1.1" xmlns="http://www.w3.org/2000/svg" p-id="641" xmlns:xlink="http://www.w3.org/1999/xlink" width="200" height="200"><defs><style type="text/css"></style></defs><path d="M509.8 959.3c-60.5 0-119.2-11.9-174.4-35.2-53.4-22.6-101.3-55-142.4-96.1s-73.5-89.1-96-142.4c-23.4-55.3-35.2-114-35.2-174.4 0-60.5 11.9-119.2 35.2-174.4 22.6-53.4 54.9-101.3 96-142.4s89.1-73.5 142.4-96C390.7 74.8 449.4 63 509.8 63S629 74.8 684.3 98.2c53.4 22.6 101.3 54.9 142.4 96s73.5 89.1 96 142.4c23.4 55.3 35.2 114 35.2 174.4 0 60.5-11.9 119.2-35.2 174.4-22.6 53.4-54.9 101.3-96 142.4s-89.1 73.5-142.4 96c-55.3 23.6-114 35.5-174.5 35.5z m0-836.3c-52.4 0-103.2 10.3-151.1 30.5C312.6 173 271 201 235.4 236.6c-35.7 35.7-63.6 77.2-83.2 123.4-20.2 47.8-30.5 98.7-30.5 151.1 0 52.4 10.3 103.2 30.5 151.1 19.5 46.2 47.5 87.7 83.2 123.4s77.2 63.6 123.4 83.2c47.8 20.2 98.7 30.5 151.1 30.5S613.1 889 661 868.8c46.2-19.5 87.7-47.5 123.4-83.2s63.6-77.2 83.2-123.4c20.2-47.8 30.5-98.7 30.5-151.1 0-52.4-10.3-103.2-30.5-151.1-19.5-46.2-47.5-87.7-83.2-123.4S707.2 173 661 153.4c-47.9-20.2-98.7-30.4-151.2-30.4z" fill="" p-id="642"></path><path d="M511.3 960.7c-60.5 0-119.3-11.9-174.6-35.2-53.4-22.6-101.4-54.9-142.6-96.1-41.2-41.2-73.5-89.2-96.1-142.6-23.4-55.3-35.2-114-35.2-174.6 0-60.5 11.9-119.3 35.2-174.6 22.6-53.4 54.9-101.4 96.1-142.6 41.2-41.2 89.2-73.5 142.6-96.1 55.3-23.4 114-35.2 174.6-35.2S630.6 75.6 685.9 99c53.4 22.6 101.4 54.9 142.6 96.1 41.2 41.2 73.5 89.2 96.1 142.6 23.4 55.3 35.2 114 35.2 174.6 0 60.5-11.9 119.3-35.2 174.6-22.6 53.4-54.9 101.4-96.1 142.6s-89.2 73.5-142.6 96.1c-55.3 23.3-114 35.1-174.6 35.1z m0-896c-60.4 0-119 11.8-174.2 35.2-53.3 22.5-101.1 54.8-142.2 95.9-41.1 41.1-73.4 89-95.9 142.2-23.3 55.2-35.2 113.8-35.2 174.2s11.8 119 35.2 174.2c22.5 53.3 54.8 101.1 95.9 142.2 41.1 41.1 89 73.4 142.2 95.9 55.2 23.3 113.8 35.2 174.2 35.2s119-11.8 174.2-35.2c53.3-22.5 101.1-54.8 142.2-95.9s73.4-89 95.9-142.2c23.3-55.2 35.2-113.8 35.2-174.2S947 393.2 923.7 338c-22.5-53.3-54.8-101.1-95.9-142.2-41.1-41.1-89-73.4-142.2-95.9-55.2-23.3-113.9-35.2-174.3-35.2z" fill="#CCCCCC" p-id="643"></path><path d="M302 298.8h467.1L433.9 680.7h344.5c11.8 0 21.4 9.6 21.4 21.4 0 11.8-9.6 21.4-21.4 21.4H226.2l342.4-375.8H302c-15.9 0-27.6-15-23.7-30.5 2.8-10.8 12.6-18.4 23.7-18.4z" fill="" p-id="644"></path></svg>